<svg width="19" height="21" viewBox="0 0 19 21" fill="none" xmlns="http://www.w3.org/2000/svg">
<path fill-rule="evenodd" clip-rule="evenodd" d="M13.9743 11.5H10.9743C10.4243 11.5 9.97433 11.95 9.97433 12.5V15.5C9.97433 16.05 10.4243 16.5 10.9743 16.5H13.9743C14.5243 16.5 14.9743 16.05 14.9743 15.5V12.5C14.9743 11.95 14.5243 11.5 13.9743 11.5ZM13.9743 1.5V2.5H5.97433V1.5C5.97433 0.95 5.52433 0.5 4.97433 0.5C4.42433 0.5 3.97433 0.95 3.97433 1.5V2.5H2.97433C1.86433 2.5 0.984335 3.4 0.984335 4.5L0.974335 18.5C0.974335 19.6 1.86433 20.5 2.97433 20.5H16.9743C18.0743 20.5 18.9743 19.6 18.9743 18.5V4.5C18.9743 3.4 18.0743 2.5 16.9743 2.5H15.9743V1.5C15.9743 0.95 15.5243 0.5 14.9743 0.5C14.4243 0.5 13.9743 0.95 13.9743 1.5ZM15.9743 18.5H3.97433C3.42433 18.5 2.97433 18.05 2.97433 17.5V7.5H16.9743V17.5C16.9743 18.05 16.5243 18.5 15.9743 18.5Z" fill="#C3CAD9"/>
</svg>
