<svg width="19" height="19" viewBox="0 0 19 19" fill="none" xmlns="http://www.w3.org/2000/svg">
<path fill-rule="evenodd" clip-rule="evenodd" d="M17.178 12.75L14.638 12.46C14.028 12.39 13.428 12.6 12.998 13.03L11.158 14.87C8.32801 13.43 6.00801 11.12 4.56801 8.28L6.41801 6.43C6.84801 6 7.05801 5.4 6.98801 4.79L6.69801 2.27C6.57801 1.26 5.72801 0.5 4.70801 0.5H2.97801C1.84801 0.5 0.908008 1.44 0.978008 2.57C1.50801 11.11 8.33801 17.93 16.868 18.46C17.998 18.53 18.938 17.59 18.938 16.46V14.73C18.948 13.72 18.188 12.87 17.178 12.75Z" fill="#FF6633"/>
</svg>
