<svg width="23" height="15" viewBox="0 0 23 15" fill="none" xmlns="http://www.w3.org/2000/svg">
<path fill-rule="evenodd" clip-rule="evenodd" d="M15.9743 6.5C17.6343 6.5 18.9643 5.16 18.9643 3.5C18.9643 1.84 17.6343 0.5 15.9743 0.5C14.3143 0.5 12.9743 1.84 12.9743 3.5C12.9743 5.16 14.3143 6.5 15.9743 6.5ZM7.97433 6.5C9.63433 6.5 10.9643 5.16 10.9643 3.5C10.9643 1.84 9.63433 0.5 7.97433 0.5C6.31433 0.5 4.97433 1.84 4.97433 3.5C4.97433 5.16 6.31433 6.5 7.97433 6.5ZM7.97433 8.5C5.64433 8.5 0.974335 9.67 0.974335 12V13.5C0.974335 14.05 1.42433 14.5 1.97433 14.5H13.9743C14.5243 14.5 14.9743 14.05 14.9743 13.5V12C14.9743 9.67 10.3043 8.5 7.97433 8.5ZM15.9743 8.5C15.6843 8.5 15.3543 8.52 15.0043 8.55C15.0243 8.56 15.0343 8.58 15.0443 8.59C16.1843 9.42 16.9743 10.53 16.9743 12V13.5C16.9743 13.85 16.9043 14.19 16.7943 14.5H21.9743C22.5243 14.5 22.9743 14.05 22.9743 13.5V12C22.9743 9.67 18.3043 8.5 15.9743 8.5Z" fill="#C3CAD9"/>
</svg>
