<svg width="19" height="19" viewBox="0 0 19 19" fill="none" xmlns="http://www.w3.org/2000/svg">
<path fill-rule="evenodd" clip-rule="evenodd" d="M1.97433 10.5H7.97433C8.52433 10.5 8.97433 10.05 8.97433 9.5V1.5C8.97433 0.95 8.52433 0.5 7.97433 0.5H1.97433C1.42433 0.5 0.974335 0.95 0.974335 1.5V9.5C0.974335 10.05 1.42433 10.5 1.97433 10.5ZM1.97433 18.5H7.97433C8.52433 18.5 8.97433 18.05 8.97433 17.5V13.5C8.97433 12.95 8.52433 12.5 7.97433 12.5H1.97433C1.42433 12.5 0.974335 12.95 0.974335 13.5V17.5C0.974335 18.05 1.42433 18.5 1.97433 18.5ZM11.9743 18.5H17.9743C18.5243 18.5 18.9743 18.05 18.9743 17.5V9.5C18.9743 8.95 18.5243 8.5 17.9743 8.5H11.9743C11.4243 8.5 10.9743 8.95 10.9743 9.5V17.5C10.9743 18.05 11.4243 18.5 11.9743 18.5ZM10.9743 1.5V5.5C10.9743 6.05 11.4243 6.5 11.9743 6.5H17.9743C18.5243 6.5 18.9743 6.05 18.9743 5.5V1.5C18.9743 0.95 18.5243 0.5 17.9743 0.5H11.9743C11.4243 0.5 10.9743 0.95 10.9743 1.5Z" fill="#C3CAD9"/>
</svg>
