<svg width="21" height="17" viewBox="0 0 21 17" fill="none" xmlns="http://www.w3.org/2000/svg">
<path fill-rule="evenodd" clip-rule="evenodd" d="M18.9743 0.5H2.97433C1.87433 0.5 0.984335 1.4 0.984335 2.5L0.974335 14.5C0.974335 15.6 1.87433 16.5 2.97433 16.5H18.9743C20.0743 16.5 20.9743 15.6 20.9743 14.5V2.5C20.9743 1.4 20.0743 0.5 18.9743 0.5ZM18.5743 4.75L11.5043 9.17C11.1843 9.37 10.7643 9.37 10.4443 9.17L3.37433 4.75C3.12433 4.59 2.97433 4.32 2.97433 4.03C2.97433 3.36 3.70433 2.96 4.27433 3.31L10.9743 7.5L17.6743 3.31C18.2443 2.96 18.9743 3.36 18.9743 4.03C18.9743 4.32 18.8243 4.59 18.5743 4.75Z" fill="#C3CAD9"/>
</svg>
