<svg width="23" height="18" viewBox="0 0 23 18" fill="none" xmlns="http://www.w3.org/2000/svg">
<path fill-rule="evenodd" clip-rule="evenodd" d="M20.9743 0.5H2.97433C1.87433 0.5 0.974335 1.4 0.974335 2.5V15.5C0.974335 16.6 1.87433 17.5 2.97433 17.5H20.9743C22.0743 17.5 22.9743 16.6 22.9743 15.5V2.5C22.9743 1.4 22.0743 0.5 20.9743 0.5ZM20.9743 14.5C20.9743 15.05 20.5243 15.5 19.9743 15.5H11.9743V2.5H19.9743C20.5243 2.5 20.9743 2.95 20.9743 3.5V14.5ZM19.2243 6H13.7243C13.3143 6 12.9743 6.34 12.9743 6.75C12.9743 7.16 13.3143 7.5 13.7243 7.5H19.2243C19.6343 7.5 19.9743 7.16 19.9743 6.75C19.9743 6.34 19.6343 6 19.2243 6ZM19.2243 8.5H13.7243C13.3143 8.5 12.9743 8.84 12.9743 9.25C12.9743 9.66 13.3143 10 13.7243 10H19.2243C19.6343 10 19.9743 9.66 19.9743 9.25C19.9743 8.84 19.6343 8.5 19.2243 8.5ZM19.2243 11H13.7243C13.3143 11 12.9743 11.34 12.9743 11.75C12.9743 12.16 13.3143 12.5 13.7243 12.5H19.2243C19.6343 12.5 19.9743 12.16 19.9743 11.75C19.9743 11.34 19.6343 11 19.2243 11Z" fill="#8833FF"/>
</svg>
