<svg width="21" height="20" viewBox="0 0 21 20" fill="none" xmlns="http://www.w3.org/2000/svg">
<path fill-rule="evenodd" clip-rule="evenodd" d="M10.2243 0C4.70433 0 0.224335 4.48 0.224335 10C0.224335 15.52 4.70433 20 10.2243 20C15.7443 20 20.2243 15.52 20.2243 10C20.2243 4.48 15.7443 0 10.2243 0ZM14.2243 11H11.2243V14C11.2243 14.55 10.7743 15 10.2243 15C9.67433 15 9.22433 14.55 9.22433 14V11H6.22433C5.67433 11 5.22433 10.55 5.22433 10C5.22433 9.45 5.67433 9 6.22433 9H9.22433V6C9.22433 5.45 9.67433 5 10.2243 5C10.7743 5 11.2243 5.45 11.2243 6V9H14.2243C14.7743 9 15.2243 9.45 15.2243 10C15.2243 10.55 14.7743 11 14.2243 11Z" fill="#C3CAD9"/>
</svg>
