<svg width="20" height="20" viewBox="0 0 20 20" fill="none" xmlns="http://www.w3.org/2000/svg">
<path fill-rule="evenodd" clip-rule="evenodd" d="M17.4411 0.666672H2.50772C1.48105 0.666672 0.641052 1.50667 0.641052 2.53334V17.4667C0.641052 18.4933 1.48105 19.3333 2.50772 19.3333H17.4411C18.4677 19.3333 19.3077 18.4933 19.3077 17.4667V2.53334C19.3077 1.50667 18.4677 0.666672 17.4411 0.666672ZM6.24105 17.4667H3.44105C2.92772 17.4667 2.50772 17.0467 2.50772 16.5333V13.7333H6.24105V17.4667ZM6.24105 11.8667H2.50772V8.13334H6.24105V11.8667ZM6.24105 6.26667H2.50772V3.46667C2.50772 2.95334 2.92772 2.53334 3.44105 2.53334H6.24105V6.26667ZM11.8411 17.4667H8.10772V13.7333H11.8411V17.4667ZM11.8411 11.8667H8.10772V8.13334H11.8411V11.8667ZM11.8411 6.26667H8.10772V2.53334H11.8411V6.26667ZM16.5077 17.4667H13.7077V13.7333H17.4411V16.5333C17.4411 17.0467 17.0211 17.4667 16.5077 17.4667ZM17.4411 11.8667H13.7077V8.13334H17.4411V11.8667ZM17.4411 6.26667H13.7077V2.53334H16.5077C17.0211 2.53334 17.4411 2.95334 17.4411 3.46667V6.26667Z" fill="#C3CAD9"/>
</svg>
