<svg width="18" height="15" viewBox="0 0 18 15" fill="none" xmlns="http://www.w3.org/2000/svg">
<path fill-rule="evenodd" clip-rule="evenodd" d="M1.97434 6.06666C1.19967 6.06666 0.574341 6.69199 0.574341 7.46666C0.574341 8.24133 1.19967 8.86666 1.97434 8.86666C2.74901 8.86666 3.37434 8.24133 3.37434 7.46666C3.37434 6.69199 2.74901 6.06666 1.97434 6.06666ZM1.97434 0.46666C1.19967 0.46666 0.574341 1.09199 0.574341 1.86666C0.574341 2.64133 1.19967 3.26666 1.97434 3.26666C2.74901 3.26666 3.37434 2.64133 3.37434 1.86666C3.37434 1.09199 2.74901 0.46666 1.97434 0.46666ZM1.97434 11.6667C1.19967 11.6667 0.574341 12.3013 0.574341 13.0667C0.574341 13.832 1.20901 14.4667 1.97434 14.4667C2.73967 14.4667 3.37434 13.832 3.37434 13.0667C3.37434 12.3013 2.74901 11.6667 1.97434 11.6667ZM5.70767 14H16.9077C17.421 14 17.841 13.58 17.841 13.0667C17.841 12.5533 17.421 12.1333 16.9077 12.1333H5.70767C5.19434 12.1333 4.77434 12.5533 4.77434 13.0667C4.77434 13.58 5.19434 14 5.70767 14ZM5.70767 8.39999H16.9077C17.421 8.39999 17.841 7.97999 17.841 7.46666C17.841 6.95333 17.421 6.53333 16.9077 6.53333H5.70767C5.19434 6.53333 4.77434 6.95333 4.77434 7.46666C4.77434 7.97999 5.19434 8.39999 5.70767 8.39999ZM4.77434 1.86666C4.77434 2.37999 5.19434 2.79999 5.70767 2.79999H16.9077C17.421 2.79999 17.841 2.37999 17.841 1.86666C17.841 1.35333 17.421 0.933326 16.9077 0.933326H5.70767C5.19434 0.933326 4.77434 1.35333 4.77434 1.86666Z" fill="#C3CAD9"/>
</svg>
