<svg width="14" height="18" viewBox="0 0 14 18" fill="none" xmlns="http://www.w3.org/2000/svg">
<path fill-rule="evenodd" clip-rule="evenodd" d="M1.37437 15.5333C1.37437 16.56 2.21437 17.4 3.24104 17.4H10.7077C11.7344 17.4 12.5744 16.56 12.5744 15.5333V6.20001C12.5744 5.17334 11.7344 4.33334 10.7077 4.33334H3.24104C2.21437 4.33334 1.37437 5.17334 1.37437 6.20001V15.5333ZM12.5744 1.53334H10.241L9.57837 0.870673C9.41037 0.702673 9.16771 0.600006 8.92504 0.600006H5.02371C4.78104 0.600006 4.53837 0.702673 4.37037 0.870673L3.70771 1.53334H1.37437C0.86104 1.53334 0.44104 1.95334 0.44104 2.46667C0.44104 2.98001 0.86104 3.40001 1.37437 3.40001H12.5744C13.0877 3.40001 13.5077 2.98001 13.5077 2.46667C13.5077 1.95334 13.0877 1.53334 12.5744 1.53334Z" fill="#C3CAD9"/>
</svg>
