<svg width="19" height="15" viewBox="0 0 19 15" fill="none" xmlns="http://www.w3.org/2000/svg">
<path fill-rule="evenodd" clip-rule="evenodd" d="M6.17434 1.86666C6.17434 2.64133 6.79967 3.26666 7.57434 3.26666H10.841V13.0667C10.841 13.8413 11.4663 14.4667 12.241 14.4667C13.0157 14.4667 13.641 13.8413 13.641 13.0667V3.26666H16.9077C17.6823 3.26666 18.3077 2.64133 18.3077 1.86666C18.3077 1.09199 17.6823 0.46666 16.9077 0.46666H7.57434C6.79967 0.46666 6.17434 1.09199 6.17434 1.86666ZM1.97434 7.93333H3.37434V13.0667C3.37434 13.8413 3.99967 14.4667 4.77434 14.4667C5.54901 14.4667 6.17434 13.8413 6.17434 13.0667V7.93333H7.57434C8.34901 7.93333 8.97434 7.30799 8.97434 6.53333C8.97434 5.75866 8.34901 5.13333 7.57434 5.13333H1.97434C1.19967 5.13333 0.574341 5.75866 0.574341 6.53333C0.574341 7.30799 1.19967 7.93333 1.97434 7.93333Z" fill="#C3CAD9"/>
</svg>
