<svg width="18" height="18" viewBox="0 0 18 18" fill="none" xmlns="http://www.w3.org/2000/svg">
<path fill-rule="evenodd" clip-rule="evenodd" d="M0.574341 2.46667V15.5333C0.574341 16.56 1.41434 17.4 2.44101 17.4H15.5077C16.5343 17.4 17.3743 16.56 17.3743 15.5333V2.46667C17.3743 1.44001 16.5343 0.600006 15.5077 0.600006H2.44101C1.41434 0.600006 0.574341 1.44001 0.574341 2.46667ZM8.04101 15.5333H3.37434C2.86101 15.5333 2.44101 15.1133 2.44101 14.6V9.93334H7.10767C7.62101 9.93334 8.04101 10.3533 8.04101 10.8667V15.5333ZM7.10767 8.06667H2.44101V3.40001C2.44101 2.88667 2.86101 2.46667 3.37434 2.46667H8.04101V7.13334C8.04101 7.64667 7.62101 8.06667 7.10767 8.06667ZM14.5743 15.5333H9.90767V10.8667C9.90767 10.3533 10.3277 9.93334 10.841 9.93334H15.5077V14.6C15.5077 15.1133 15.0877 15.5333 14.5743 15.5333ZM15.5077 8.06667H10.841C10.3277 8.06667 9.90767 7.64667 9.90767 7.13334V2.46667H14.5743C15.0877 2.46667 15.5077 2.88667 15.5077 3.40001V8.06667Z" fill="#C3CAD9"/>
</svg>
