<svg width="17" height="16" viewBox="0 0 17 16" fill="none" xmlns="http://www.w3.org/2000/svg">
<path fill-rule="evenodd" clip-rule="evenodd" d="M8.97437 0C4.55837 0 0.974365 3.584 0.974365 8C0.974365 12.416 4.55837 16 8.97437 16C13.3904 16 16.9744 12.416 16.9744 8C16.9744 3.584 13.3904 0 8.97437 0ZM12.1744 8.8H9.77437V11.2C9.77437 11.64 9.41437 12 8.97437 12C8.53437 12 8.17437 11.64 8.17437 11.2V8.8H5.77437C5.33437 8.8 4.97437 8.44 4.97437 8C4.97437 7.56 5.33437 7.2 5.77437 7.2H8.17437V4.8C8.17437 4.36 8.53437 4 8.97437 4C9.41437 4 9.77437 4.36 9.77437 4.8V7.2H12.1744C12.6144 7.2 12.9744 7.56 12.9744 8C12.9744 8.44 12.6144 8.8 12.1744 8.8Z" fill="white"/>
</svg>
