<svg width="18" height="18" viewBox="0 0 18 18" fill="none" xmlns="http://www.w3.org/2000/svg">
<path fill-rule="evenodd" clip-rule="evenodd" d="M17.3743 15.5333V2.46667C17.3743 1.44001 16.5343 0.600006 15.5077 0.600006H2.44101C1.41434 0.600006 0.574341 1.44001 0.574341 2.46667V15.5333C0.574341 16.56 1.41434 17.4 2.44101 17.4H15.5077C16.5343 17.4 17.3743 16.56 17.3743 15.5333ZM6.08101 10.848L8.04101 13.2093L10.9343 9.48534C11.121 9.24267 11.4943 9.24267 11.681 9.49467L14.957 13.8627C15.1903 14.1707 14.9663 14.6093 14.5837 14.6093H3.39301C3.00101 14.6093 2.78634 14.1613 3.02901 13.8533L5.35301 10.8667C5.53034 10.624 5.88501 10.6147 6.08101 10.848Z" fill="#C3CAD9"/>
</svg>
