<svg width="15" height="15" viewBox="0 0 15 15" fill="none" xmlns="http://www.w3.org/2000/svg">
<path fill-rule="evenodd" clip-rule="evenodd" d="M10.7749 9.6005H10.1429L9.91891 9.3845C10.8789 8.2645 11.3749 6.7365 11.1029 5.1125C10.7269 2.8885 8.87091 1.1125 6.63091 0.840504C3.24691 0.424504 0.398915 3.2725 0.814915 6.6565C1.08691 8.8965 2.86291 10.7525 5.08691 11.1285C6.71091 11.4005 8.23891 10.9045 9.35891 9.9445L9.57491 10.1685V10.8005L12.9749 14.2005C13.3029 14.5285 13.8389 14.5285 14.1669 14.2005C14.4949 13.8725 14.4949 13.3365 14.1669 13.0085L10.7749 9.6005ZM5.97491 9.6005C3.98291 9.6005 2.37491 7.9925 2.37491 6.0005C2.37491 4.0085 3.98291 2.4005 5.97491 2.4005C7.96691 2.4005 9.57491 4.0085 9.57491 6.0005C9.57491 7.9925 7.96691 9.6005 5.97491 9.6005Z" fill="#C3CAD9"/>
</svg>
