<svg width="20" height="20" viewBox="0 0 20 20" fill="none" xmlns="http://www.w3.org/2000/svg">
<path fill-rule="evenodd" clip-rule="evenodd" d="M9.97439 0.666672C4.82239 0.666672 0.641052 4.84801 0.641052 10C0.641052 15.152 4.82239 19.3333 9.97439 19.3333C15.1264 19.3333 19.3077 15.152 19.3077 10C19.3077 4.84801 15.1264 0.666672 9.97439 0.666672ZM7.44505 14.004L4.09439 10.6533C3.91962 10.479 3.8214 10.2422 3.8214 9.99534C3.8214 9.74846 3.91962 9.51171 4.09439 9.33734C4.45839 8.97334 5.04639 8.97334 5.41039 9.33734L8.10772 12.0253L14.5291 5.60401C14.8931 5.24001 15.4811 5.24001 15.8451 5.60401C16.2091 5.96801 16.2091 6.55601 15.8451 6.92001L8.76105 14.004C8.40639 14.368 7.80905 14.368 7.44505 14.004Z" fill="#C3CAD9"/>
</svg>
