<svg width="23" height="22" viewBox="0 0 23 22" fill="none" xmlns="http://www.w3.org/2000/svg">
<path fill-rule="evenodd" clip-rule="evenodd" d="M12.0631 2.39628C10.0531 0.386282 7.04312 -0.0237175 4.62312 1.15628L8.25312 4.78628C8.64312 5.17628 8.64312 5.80628 8.25312 6.19628L6.66312 7.78628C6.27312 8.18628 5.64312 8.18628 5.25312 7.78628L1.62312 4.15628C0.453117 6.58628 0.863117 9.57628 2.87312 11.5863C4.73312 13.4463 7.45312 13.9363 9.76312 13.0663L17.7231 21.0263C18.7531 22.0563 20.4131 22.0563 21.4331 21.0263C22.4631 19.9963 22.4631 18.3363 21.4331 17.3163L13.5131 9.38628C14.4331 7.04628 13.9531 4.28628 12.0631 2.39628Z" fill="#C3CAD9"/>
</svg>
