<svg width="22" height="15" viewBox="0 0 22 15" fill="none" xmlns="http://www.w3.org/2000/svg">
<path fill-rule="evenodd" clip-rule="evenodd" d="M11.9743 4.5H1.97433C1.42433 4.5 0.974335 4.95 0.974335 5.5C0.974335 6.05 1.42433 6.5 1.97433 6.5H11.9743C12.5243 6.5 12.9743 6.05 12.9743 5.5C12.9743 4.95 12.5243 4.5 11.9743 4.5ZM11.9743 0.5H1.97433C1.42433 0.5 0.974335 0.95 0.974335 1.5C0.974335 2.05 1.42433 2.5 1.97433 2.5H11.9743C12.5243 2.5 12.9743 2.05 12.9743 1.5C12.9743 0.95 12.5243 0.5 11.9743 0.5ZM1.97433 10.5H7.97433C8.52433 10.5 8.97433 10.05 8.97433 9.5C8.97433 8.95 8.52433 8.5 7.97433 8.5H1.97433C1.42433 8.5 0.974335 8.95 0.974335 9.5C0.974335 10.05 1.42433 10.5 1.97433 10.5ZM21.1843 6.71L21.2743 6.8C21.6643 7.19 21.6643 7.82 21.2743 8.21L15.6943 13.8C15.3043 14.19 14.6743 14.19 14.2843 13.8L11.1943 10.71C11.0071 10.5232 10.9018 10.2695 10.9018 10.005C10.9018 9.74048 11.0071 9.48683 11.1943 9.3L11.2843 9.21C11.6743 8.82 12.3043 8.82 12.6943 9.21L14.9943 11.51L19.7743 6.72C20.1543 6.32 20.7943 6.32 21.1843 6.71Z" fill="#C3CAD9"/>
</svg>
