<svg width="21" height="21" viewBox="0 0 21 21" fill="none" xmlns="http://www.w3.org/2000/svg">
<path fill-rule="evenodd" clip-rule="evenodd" d="M10.9714 0.5C5.45861 0.5 0.974335 4.98427 0.974335 10.4971C0.974335 12.6834 1.67961 14.711 2.87851 16.3568L1.6325 20.0711L5.47619 18.843C7.05709 19.8891 8.94368 20.4944 10.9772 20.4944C16.4901 20.4944 20.9743 16.0099 20.9743 10.4973C20.9743 4.98444 16.4901 0.500166 10.9772 0.500166H10.9714V0.5ZM8.17969 5.57808C7.98579 5.11381 7.83883 5.09623 7.54507 5.08429C7.43353 5.07711 7.32179 5.07323 7.21002 5.07268C6.82786 5.07268 6.42828 5.18431 6.18727 5.43112C5.89352 5.73085 5.16469 6.43015 5.16469 7.86426C5.16469 9.29836 6.21082 10.6854 6.35181 10.8794C6.49877 11.0732 8.39134 14.0588 11.3299 15.2756C13.6278 16.2277 14.3097 16.1395 14.8327 16.0278C15.5967 15.8633 16.5548 15.2988 16.7958 14.6173C17.0368 13.9354 17.0368 13.3535 16.9661 13.2301C16.8956 13.1067 16.7015 13.0364 16.4078 12.8893C16.114 12.7423 14.6857 12.037 14.4154 11.943C14.1508 11.8431 13.8982 11.8785 13.6985 12.1606C13.4163 12.5544 13.1402 12.9541 12.9167 13.195C12.7404 13.3831 12.4523 13.4066 12.2115 13.3066C11.8882 13.1716 10.9832 12.8539 9.86641 11.8607C9.0024 11.0909 8.41473 10.133 8.24438 9.84507C8.07386 9.55131 8.2268 9.38063 8.36181 9.22206C8.50877 9.03977 8.64976 8.91056 8.79672 8.74005C8.94368 8.5697 9.02595 8.48146 9.12 8.28158C9.22002 8.08768 9.14936 7.88781 9.07887 7.74085C9.00837 7.59389 8.4207 6.15979 8.17969 5.57808Z" fill="#29CC39"/>
</svg>
